<?xml version="1.0" encoding="UTF-8"?>
<svg id="Layer_2" data-name="Layer 2" xmlns="http://www.w3.org/2000/svg" viewBox="0 0 777.08 1113.79">
  <defs>
    <style>
      .cls-1 {
        fill: #ed9404;
      }

      .cls-2 {
        fill: #fae10a;
        opacity: .7;
      }

      .cls-3 {
        fill: #e47d00;
      }

      .cls-4 {
        fill: #1592ec;
      }

      .cls-5 {
        fill: #e88003;
      }

      .cls-6 {
        fill: #efa80a;
      }

      .cls-7 {
        fill: #f6c20a;
      }

      .cls-8 {
        fill: #58595b;
        opacity: .3;
      }

      .cls-9 {
        fill: #24adf1;
      }
    </style>
  </defs>
  <g id="Layer_1-2" data-name="Layer 1">
    <g>
      <g>
        <polygon class="cls-4" points="733.46 1006.85 577.07 971.28 505.45 1113.79 282.14 637.62 510.15 530.69 733.46 1006.85"/>
        <polygon class="cls-9" points="43.61 1006.85 200.01 971.28 271.62 1113.79 494.93 637.62 266.93 530.69 43.61 1006.85"/>
        <polygon class="cls-8" points="507.83 626.57 411.76 913.95 388.56 864.48 494.95 637.62 461.33 621.85 507.83 626.57"/>
      </g>
      <g>
        <g>
          <path class="cls-1" d="M777.08,401.49c0,212.2-172.02,384.22-384.22,384.22S8.64,613.69,8.64,401.49,180.66,17.27,392.86,17.27s384.22,172.02,384.22,384.22Z"/>
          <path class="cls-7" d="M768.44,384.22c0,212.2-172.02,384.22-384.22,384.22S0,596.42,0,384.22,172.03,0,384.23,0s384.22,172.02,384.22,384.22Z"/>
          <circle class="cls-6" cx="384.23" cy="384.22" r="291.4"/>
          <path class="cls-2" d="M690.73,399.33c0,160.94-130.47,291.4-291.4,291.4-84.31,0-160.25-35.81-213.46-93.06,52.02,48.37,121.72,77.95,198.35,77.95,160.94,0,291.4-130.46,291.4-291.4,0-76.63-29.57-146.35-77.95-198.35,57.25,53.19,93.06,129.14,93.06,213.46Z"/>
          <path class="cls-3" d="M118.72,401.49c0-160.94,130.47-291.4,291.4-291.4,54.21,0,104.94,14.82,148.41,40.6-48.62-36.35-108.96-57.87-174.32-57.87-160.94,0-291.4,130.47-291.4,291.4,0,106.73,57.39,200.05,142.99,250.81-71.08-53.14-117.09-137.97-117.09-233.54Z"/>
          <path class="cls-2" d="M113.53,492.32l-69.96,69.8c-16.47-31.47-28.71-65.49-35.94-101.34l85.3-85.13c-.08,2.85-.12,5.7-.12,8.57,0,38.21,7.34,74.68,20.72,108.1Z"/>
          <path class="cls-2" d="M562.82,43.93l-69.96,69.83c-33.56-13.51-70.24-20.94-108.64-20.94-2.68,0-5.33,.04-7.99,.11L461.54,7.79c35.83,7.3,69.85,19.6,101.28,36.14Z"/>
          <path class="cls-2" d="M206.91,615.47l-66.16,66.01c-12.56-10.3-24.43-21.37-35.55-33.14l65.71-65.58c11.07,11.87,23.12,22.84,36,32.7Z"/>
          <path class="cls-2" d="M681.96,141.36l-66.14,66.01c-9.84-12.91-20.79-24.95-32.64-36.04l65.73-65.6c11.74,11.16,22.79,23.08,33.05,35.64Z"/>
          <path class="cls-2" d="M279.23,656.13l-70.26,70.11c-19.28-9.91-37.6-21.37-54.81-34.26l66.61-66.48c18.14,12.3,37.71,22.62,58.46,30.63Z"/>
          <path class="cls-2" d="M726.58,209.66l-70.24,70.11c-7.96-20.75-18.23-40.35-30.5-58.5l66.61-66.48c12.87,17.22,24.28,35.57,34.13,54.87Z"/>
          <path class="cls-2" d="M422.75,673.1l-91.85,91.67c-14.36-1.99-28.45-4.77-42.25-8.31l81.36-81.18c4.71,.24,9.43,.35,14.21,.35,13.06,0,25.92-.87,38.53-2.53Z"/>
          <path class="cls-2" d="M764.85,331.66v.02l-91.85,91.65c1.72-12.78,2.62-25.84,2.62-39.11,0-4.55-.11-9.09-.33-13.6l81.36-81.21c3.49,13.79,6.25,27.89,8.2,42.24Z"/>
        </g>
        <path class="cls-5" d="M389.92,234.13h55.01v338.38h-69.77v-251.7l-43.34,42.39-34.53-52.63,92.64-76.44Z"/>
        <path class="cls-7" d="M375.97,223.67h55.01v338.38h-69.77v-251.7l-43.34,42.39-34.53-52.63,92.64-76.44Z"/>
        <polygon class="cls-2" points="382.74 223.65 292.39 313.83 283.35 300.09 375.97 223.65 382.74 223.65"/>
        <polygon class="cls-2" points="430.97 323.25 430.97 391.88 361.22 461.48 361.22 392.85 430.97 323.25"/>
        <polygon class="cls-2" points="430.97 415.73 430.97 504.69 373.5 562.06 361.22 562.06 361.22 485.34 430.97 415.73"/>
      </g>
    </g>
  </g>
</svg>