<?xml version="1.0" encoding="UTF-8"?>
<svg id="Layer_2" data-name="Layer 2" xmlns="http://www.w3.org/2000/svg" viewBox="0 0 777.08 1113.79">
  <defs>
    <style>
      .cls-1 {
        fill: #e54d26;
      }

      .cls-2 {
        fill: #bc2406;
      }

      .cls-3 {
        fill: #fff;
        opacity: .2;
      }

      .cls-4 {
        fill: #1592ec;
      }

      .cls-5 {
        fill: #ed6939;
      }

      .cls-6 {
        fill: #58595b;
        opacity: .3;
      }

      .cls-7 {
        fill: #24adf1;
      }
    </style>
  </defs>
  <g id="Layer_1-2" data-name="Layer 1">
    <g>
      <g>
        <polygon class="cls-4" points="733.47 1006.85 577.07 971.28 505.45 1113.79 282.15 637.62 510.15 530.69 733.47 1006.85"/>
        <polygon class="cls-7" points="43.62 1006.85 200.01 971.28 271.63 1113.79 494.94 637.62 266.93 530.69 43.62 1006.85"/>
        <polygon class="cls-6" points="507.83 626.57 411.76 913.95 388.56 864.48 494.96 637.62 461.33 621.85 507.83 626.57"/>
      </g>
      <g>
        <path class="cls-2" d="M777.08,401.49c0,212.2-172.02,384.22-384.22,384.22S8.64,613.69,8.64,401.49,180.66,17.27,392.86,17.27s384.22,172.02,384.22,384.22Z"/>
        <path class="cls-5" d="M768.44,384.22c0,212.2-172.02,384.22-384.22,384.22S0,596.42,0,384.22,172.03,0,384.22,0s384.22,172.02,384.22,384.22Z"/>
        <circle class="cls-1" cx="384.22" cy="384.22" r="291.4"/>
        <path class="cls-3" d="M690.73,399.33c0,160.94-130.47,291.4-291.4,291.4-84.31,0-160.25-35.81-213.46-93.06,52.02,48.37,121.72,77.95,198.35,77.95,160.94,0,291.4-130.46,291.4-291.4,0-76.63-29.57-146.35-77.95-198.35,57.25,53.19,93.06,129.14,93.06,213.46Z"/>
        <path class="cls-2" d="M118.72,401.49c0-160.94,130.47-291.4,291.4-291.4,54.21,0,104.94,14.82,148.41,40.6-48.62-36.35-108.96-57.87-174.32-57.87-160.94,0-291.4,130.47-291.4,291.4,0,106.73,57.39,200.05,142.99,250.81-71.08-53.14-117.09-137.97-117.09-233.54Z"/>
        <path class="cls-3" d="M113.53,492.32l-69.96,69.8c-16.47-31.47-28.71-65.49-35.94-101.34l85.3-85.13c-.08,2.85-.12,5.7-.12,8.57,0,38.21,7.34,74.68,20.72,108.1Z"/>
        <path class="cls-3" d="M562.82,43.93l-69.96,69.83c-33.56-13.51-70.24-20.94-108.64-20.94-2.68,0-5.33,.04-7.99,.11L461.54,7.79c35.83,7.3,69.85,19.6,101.28,36.14Z"/>
        <path class="cls-3" d="M206.91,615.47l-66.16,66.01c-12.56-10.3-24.43-21.37-35.55-33.14l65.71-65.58c11.07,11.87,23.12,22.84,36,32.7Z"/>
        <path class="cls-3" d="M681.96,141.36l-66.14,66.01c-9.84-12.91-20.79-24.95-32.64-36.04l65.73-65.6c11.74,11.16,22.79,23.08,33.05,35.64Z"/>
        <path class="cls-3" d="M279.23,656.13l-70.26,70.11c-19.28-9.91-37.6-21.37-54.81-34.26l66.61-66.48c18.14,12.3,37.71,22.62,58.46,30.63Z"/>
        <path class="cls-3" d="M726.58,209.66l-70.24,70.11c-7.96-20.75-18.23-40.35-30.5-58.5l66.61-66.48c12.87,17.22,24.28,35.57,34.13,54.87Z"/>
        <path class="cls-3" d="M422.75,673.1l-91.85,91.67c-14.36-1.99-28.45-4.77-42.25-8.31l81.36-81.18c4.71,.24,9.43,.35,14.21,.35,13.06,0,25.92-.87,38.53-2.53Z"/>
        <path class="cls-3" d="M764.85,331.66v.02l-91.85,91.65c1.72-12.78,2.62-25.84,2.62-39.11,0-4.55-.11-9.09-.33-13.6l81.36-81.21c3.49,13.79,6.25,27.89,8.2,42.24Z"/>
        <path class="cls-2" d="M361.29,372.87h34.29c19.53,0,32.79-4.05,39.77-12.14,6.99-8.1,10.48-16.75,10.48-25.95,0-10.32-3.85-19.49-11.55-27.5-7.7-8.02-18.45-12.03-32.26-12.03-26.36,0-42.95,13.89-49.77,41.67l-67.4-10.72c5.56-25.08,19.01-45.84,40.37-62.27,21.35-16.43,47.66-24.65,78.93-24.65s60.21,7.79,82.52,23.36c22.3,15.57,33.46,36.86,33.46,63.86,0,35.43-18.57,59.65-55.73,72.68,43.66,11.58,65.49,37.28,65.49,77.1,0,28.56-11.16,52.03-33.46,70.43-22.31,18.41-53.07,27.61-92.28,27.61s-67.43-9.46-89.42-28.39c-21.99-18.92-35.21-42.4-39.65-70.44l69.06-10c6.67,33.5,26.03,50.25,58.11,50.25,14.92,0,27.03-3.95,36.31-11.87,9.29-7.91,13.94-18.52,13.94-31.82,0-14.09-4.25-24.62-12.74-31.58-8.49-6.97-24.72-10.45-48.7-10.45h-29.76v-57.15Z"/>
        <path class="cls-5" d="M347.34,358.92h34.29c19.53,0,32.79-4.05,39.77-12.14,6.99-8.09,10.48-16.75,10.48-25.95,0-10.32-3.85-19.49-11.55-27.5-7.7-8.02-18.45-12.03-32.26-12.03-26.36,0-42.95,13.89-49.77,41.67l-67.4-10.72c5.56-25.08,19.01-45.84,40.37-62.27,21.35-16.43,47.66-24.65,78.93-24.65s60.21,7.79,82.52,23.35c22.3,15.57,33.46,36.86,33.46,63.86,0,35.43-18.57,59.65-55.73,72.68,43.66,11.58,65.49,37.28,65.49,77.1,0,28.56-11.16,52.03-33.46,70.43-22.31,18.41-53.07,27.61-92.28,27.61s-67.43-9.46-89.42-28.38c-21.99-18.92-35.21-42.4-39.65-70.44l69.06-10c6.67,33.5,26.03,50.25,58.11,50.25,14.92,0,27.03-3.95,36.31-11.87,9.29-7.91,13.94-18.52,13.94-31.82,0-14.09-4.25-24.62-12.74-31.58-8.49-6.97-24.72-10.45-48.7-10.45h-29.76v-57.15Z"/>
        <path class="cls-3" d="M380.77,225.61l-89.97,89.83-19.91-3.17c5.58-25.11,19.04-45.86,40.38-62.28,19.18-14.75,42.33-22.88,69.5-24.38Z"/>
        <path class="cls-3" d="M506.17,312.55c0,1.5-.03,2.96-.1,4.39l-101.44,101.24c-7.6-1.4-16.78-2.09-27.52-2.09h-29.78v-9.38l48.79-48.68c11.75-1.57,20.19-5.34,25.28-11.23,6.59-7.64,10.07-15.79,10.46-24.44l58.06-57.92c10.85,13.29,16.25,29.33,16.25,48.12Z"/>
        <path class="cls-3" d="M341.95,480.7l-46.49,46.41c-12.48-11.93-21.72-25.6-27.72-40.98l29.92-29.88,32.54-4.71c2.34,11.82,6.24,21.52,11.75,29.15Z"/>
        <path class="cls-2" d="M396.12,358.02l35.74-35.68c-.39,8.65-3.88,16.81-10.46,24.44-5.09,5.89-13.53,9.66-25.28,11.23Z"/>
        <path class="cls-3" d="M508.62,427.21l-132.94,132.66c-26.85-1.88-49.24-9.17-67.2-21.87l45.54-45.47c9.07,6.17,20.5,9.28,34.28,9.28,14.92,0,27.03-3.94,36.3-11.85,9.31-7.92,13.95-18.55,13.95-31.84,0-14.09-4.26-24.62-12.76-31.6-1.01-.8-2.09-1.57-3.32-2.3l36.51-36.44h.03c24.34,8.09,40.87,21.24,49.59,39.44Z"/>
      </g>
    </g>
  </g>
</svg>